<svg width="800" height="400" viewBox="0 0 800 400" fill="none" xmlns="http://www.w3.org/2000/svg" preserveAspectRatio="xMidYMid meet">
  
  <!-- FOREVER text with distressed styling -->
  <text x="400" y="180" text-anchor="middle" font-family="Arial Black, sans-serif" font-size="72" font-weight="900" fill="black" transform="rotate(-1 400 180)">
    FOREVER
  </text>
  
  <!-- FEBRUARY text with distressed styling -->
  <text x="400" y="300" text-anchor="middle" font-family="Arial Black, sans-serif" font-size="88" font-weight="900" fill="black" transform="rotate(0.5 400 300)">
    FEBRUARY
  </text>
  
  <!-- Splatter effects -->
  <circle cx="200" cy="120" r="4" fill="black" opacity="0.6"/>
  <circle cx="600" cy="100" r="3" fill="black" opacity="0.4"/>
  <circle cx="250" cy="200" r="2" fill="black" opacity="0.5"/>
  <circle cx="550" cy="220" r="3" fill="black" opacity="0.3"/>
  <circle cx="150" cy="320" r="1.5" fill="black" opacity="0.4"/>
  <circle cx="650" cy="310" r="2.5" fill="black" opacity="0.5"/>
  <circle cx="300" cy="360" r="2" fill="black" opacity="0.3"/>
  <circle cx="500" cy="350" r="1.5" fill="black" opacity="0.4"/>
  <circle cx="350" cy="80" r="3" fill="black" opacity="0.5"/>
  <circle cx="450" cy="70" r="2" fill="black" opacity="0.4"/>
  <circle cx="120" cy="250" r="1.5" fill="black" opacity="0.3"/>
  <circle cx="680" cy="260" r="3" fill="black" opacity="0.6"/>
  <circle cx="200" cy="380" r="2" fill="black" opacity="0.4"/>
  <circle cx="600" cy="370" r="1.5" fill="black" opacity="0.5"/>
  <circle cx="400" cy="50" r="2.5" fill="black" opacity="0.3"/>
  <circle cx="400" cy="350" r="2" fill="black" opacity="0.4"/>
</svg>